# xmcd
# 
# Track frame offsets:
#     150
#     23672
#     48795
#     73123
#     90327
#     105124
#     116890
#     130391
#     158702
#     176658
#     198431
#     224743
#     255609
# 
# Disc length: 4150
# 
# Revision: 1
# Processed by: cddbd v1.5.2PL0 Copyright (c) Steve Scherf et al.
# Submitted via: fre:ac v1.0.31
# 
DISCID=b010340d
DTITLE=Lynyrd Skynyrd - Live in Atlantic City Disc 1
DYEAR=0
DGENRE=Rock/Pop
TTITLE0=Workin' For MCA
TTITLE1=Red White And Blue (love it or leave)
TTITLE2=Gimme Three Steps
TTITLE3=The Real Thing (Bo Bice)
TTITLE4=Gimme Back My Bullets (Bo Bice)
TTITLE5=Down South Jukin' (Hank Williams Jr.)
TTITLE6=Born To Boogie (Hank Williams Jr.)
TTITLE7=That Smell (3 Doors Down)
TTITLE8=Kryptonite (3 Doors Down)
TTITLE9=Saturday Night Special (3 Doors Down)
TTITLE10=Call Me The Breeze
TTITLE11=Sweet Home Alabama
TTITLE12=Free Bird
EXTD=
EXTT0=
EXTT1=
EXTT2=
EXTT3=
EXTT4=
EXTT5=
EXTT6=
EXTT7=
EXTT8=
EXTT9=
EXTT10=
EXTT11=
EXTT12=
PLAYORDER=
